<svg width="100" height="100" viewBox="0 0 100 100" fill="none" xmlns="http://www.w3.org/2000/svg">
<mask id="mask0_1_2" style="mask-type:alpha" maskUnits="userSpaceOnUse" x="33" y="35" width="33" height="29">
<path d="M65.23 42.7923C64.3893 39.0681 56.3198 35.7946 55.4121 35.4145L54.3838 35.0175L48.2775 54.4192C48.0951 54.1423 47.8897 53.8813 47.6634 53.6389C46.8571 52.8551 45.9004 52.2427 44.8511 51.8386C43.8018 51.4345 42.6815 51.247 41.5577 51.2874C37.2666 51.3312 33.5981 54.1603 33.4157 57.6045C33.3864 58.3358 33.5081 59.0653 33.7732 59.7475C34.0382 60.4298 34.441 61.0501 34.9563 61.5699C35.8374 62.4681 36.9309 63.1296 38.1355 63.4931C39.0915 63.7931 40.0887 63.9407 41.0906 63.9304C44.9455 63.9066 48.2759 61.6524 49.0806 58.7292L54.1452 42.6373C56.2064 43.5199 58.1588 44.6375 59.9638 45.9678C60.1716 46.1333 60.4368 46.2095 60.7008 46.1795C60.9648 46.1496 61.2061 46.016 61.3717 45.8081C61.5372 45.6002 61.6133 45.3351 61.5834 45.0711C61.5534 44.807 61.4198 44.5657 61.212 44.4002C59.1941 42.9113 57.0049 41.6697 54.6914 40.7021L55.6401 37.6878C58.7084 39.0309 62.8568 41.4059 63.248 43.2273C64.132 47.0805 58.8159 49.5483 58.7657 49.5745C58.5381 49.6919 58.3642 49.8922 58.2799 50.1341C58.1956 50.376 58.2073 50.641 58.3127 50.8744C58.418 51.1079 58.6089 51.2921 58.846 51.3889C59.0831 51.4858 59.3484 51.488 59.5871 51.395C59.9076 51.2758 66.4669 48.2557 65.23 42.7923ZM41.041 61.9229C40.1818 61.9599 39.3239 61.8241 38.5181 61.5237C37.7123 61.2233 36.9749 60.7642 36.3497 60.1738C36.0211 59.8517 35.7633 59.4646 35.5928 59.0373C35.4222 58.6099 35.3426 58.1517 35.3591 57.6919C35.4862 55.2893 38.2582 53.3102 41.5471 53.2864C42.3283 53.2785 43.1059 53.3924 43.8521 53.624C44.7361 53.8836 45.5411 54.3605 46.1937 55.011C46.5222 55.3331 46.78 55.7202 46.9506 56.1475C47.1212 56.5748 47.2007 57.033 47.1843 57.4928C47.1114 59.923 44.3393 61.9021 41.041 61.9229Z" fill="black"/>
</mask>
<g mask="url(#mask0_1_2)">
<rect x="15" y="18" width="70" height="64" fill="url(#paint0_linear_1_2)"/>
</g>
<rect x="15.5" y="18.5" width="69" height="63" rx="1.5" stroke="url(#paint1_linear_1_2)"/>
<defs>
<linearGradient id="paint0_linear_1_2" x1="15" y1="18" x2="84.7146" y2="82.3094" gradientUnits="userSpaceOnUse">
<stop stop-color="#FF0000"/>
<stop offset="0.473958" stop-color="#FD00AD"/>
<stop offset="1" stop-color="#00C2FF"/>
</linearGradient>
<linearGradient id="paint1_linear_1_2" x1="15" y1="18" x2="85" y2="82" gradientUnits="userSpaceOnUse">
<stop stop-color="#FF0000"/>
<stop offset="0.484375" stop-color="#FD00AD"/>
<stop offset="1" stop-color="#00C2FF"/>
</linearGradient>
</defs>
</svg>
